<mxfile host="Electron" agent="Mozilla/5.0 (Windows NT 10.0; Win64; x64) AppleWebKit/537.36 (KHTML, like Gecko) draw.io/27.0.9 Chrome/134.0.6998.205 Electron/35.4.0 Safari/537.36" version="27.0.9">
  <diagram name="EC2-Snapshot-Automation" id="architecture">
    <mxGraphModel dx="1665" dy="873" grid="0" gridSize="10" guides="1" tooltips="1" connect="1" arrows="1" fold="1" page="1" pageScale="1" pageWidth="1169" pageHeight="827" math="0" shadow="0">
      <root>
        <mxCell id="0" />
        <mxCell id="1" parent="0" />
        <mxCell id="bg" value="" style="rounded=0;whiteSpace=wrap;html=1;fillColor=#f8f9fa;strokeColor=none;" parent="1" vertex="1">
          <mxGeometry x="40" y="40" width="1094" height="754" as="geometry" />
        </mxCell>
        <mxCell id="title" value="EC2 Snapshot Automation - AMI and Snapshot Tagging Architecture" style="text;html=1;strokeColor=none;fillColor=none;align=center;verticalAlign=middle;whiteSpace=wrap;rounded=0;fontSize=18;fontStyle=1;fontColor=#232F3E;" parent="1" vertex="1">
          <mxGeometry x="400" y="60" width="360" height="30" as="geometry" />
        </mxCell>
        <mxCell id="cloud" value="AWS Cloud" style="sketch=0;outlineConnect=0;gradientColor=none;html=1;whiteSpace=wrap;fontSize=12;fontStyle=1;shape=mxgraph.aws4.group;grIcon=mxgraph.aws4.group_aws_cloud;strokeColor=#232F3E;fillColor=none;verticalAlign=top;align=left;spacingLeft=30;fontColor=#232F3E;dashed=0;" parent="1" vertex="1">
          <mxGeometry x="26" y="102" width="1126" height="704" as="geometry" />
        </mxCell>
        <mxCell id="region" value="us-east-1" style="sketch=0;outlineConnect=0;gradientColor=none;html=1;whiteSpace=wrap;fontSize=12;fontStyle=1;shape=mxgraph.aws4.group;grIcon=mxgraph.aws4.group_region;strokeColor=#147EBA;fillColor=none;verticalAlign=top;align=left;spacingLeft=30;fontColor=#147EBA;dashed=0;" parent="1" vertex="1">
          <mxGeometry x="46" y="134" width="1093" height="664" as="geometry" />
        </mxCell>
        <mxCell id="eventbridge" value="EventBridge Rule&#xa;(Daily Trigger)" style="sketch=0;points=[[0,0,0],[0.25,0,0],[0.5,0,0],[0.75,0,0],[1,0,0],[0,1,0],[0.25,1,0],[0.5,1,0],[0.75,1,0],[1,1,0],[0,0.25,0],[0,0.5,0],[0,0.75,0],[1,0.25,0],[1,0.5,0],[1,0.75,0]];outlineConnect=0;fontColor=#232F3E;gradientColor=#FF4F8B;gradientDirection=north;fillColor=#BC1356;strokeColor=#ffffff;dashed=0;verticalLabelPosition=bottom;verticalAlign=top;align=center;html=1;fontSize=12;fontStyle=1;aspect=fixed;shape=mxgraph.aws4.resourceIcon;resIcon=mxgraph.aws4.eventbridge;" parent="1" vertex="1">
          <mxGeometry x="160" y="220" width="78" height="78" as="geometry" />
        </mxCell>
        <mxCell id="lambda" value="Lambda Function&#xa;(TagEC2Backups)" style="sketch=0;points=[[0,0,0],[0.25,0,0],[0.5,0,0],[0.75,0,0],[1,0,0],[0,1,0],[0.25,1,0],[0.5,1,0],[0.75,1,0],[1,1,0],[0,0.25,0],[0,0.5,0],[0,0.75,0],[1,0.25,0],[1,0.5,0],[1,0.75,0]];outlineConnect=0;fontColor=#232F3E;gradientColor=#F78E04;gradientDirection=north;fillColor=#D05C17;strokeColor=#ffffff;dashed=0;verticalLabelPosition=bottom;verticalAlign=top;align=center;html=1;fontSize=12;fontStyle=1;aspect=fixed;shape=mxgraph.aws4.resourceIcon;resIcon=mxgraph.aws4.lambda;" parent="1" vertex="1">
          <mxGeometry x="429" y="312" width="78" height="78" as="geometry" />
        </mxCell>
        <mxCell id="iam" value="IAM Role&#xa;(TagEC2BackupsRole)" style="sketch=0;points=[[0,0,0],[0.25,0,0],[0.5,0,0],[0.75,0,0],[1,0,0],[0,1,0],[0.25,1,0],[0.5,1,0],[0.75,1,0],[1,1,0],[0,0.25,0],[0,0.5,0],[0,0.75,0],[1,0.25,0],[1,0.5,0],[1,0.75,0]];outlineConnect=0;fontColor=#232F3E;gradientColor=#F54749;gradientDirection=north;fillColor=#C7131F;strokeColor=#ffffff;dashed=0;verticalLabelPosition=bottom;verticalAlign=top;align=center;html=1;fontSize=12;fontStyle=1;aspect=fixed;shape=mxgraph.aws4.resourceIcon;resIcon=mxgraph.aws4.iam;" parent="1" vertex="1">
          <mxGeometry x="164" y="349" width="78" height="78" as="geometry" />
        </mxCell>
        <mxCell id="ec2" value="Amazon EC2" style="sketch=0;points=[[0,0,0],[0.25,0,0],[0.5,0,0],[0.75,0,0],[1,0,0],[0,1,0],[0.25,1,0],[0.5,1,0],[0.75,1,0],[1,1,0],[0,0.25,0],[0,0.5,0],[0,0.75,0],[1,0.25,0],[1,0.5,0],[1,0.75,0]];outlineConnect=0;fontColor=#232F3E;gradientColor=#F78E04;gradientDirection=north;fillColor=#D05C17;strokeColor=#ffffff;dashed=0;verticalLabelPosition=bottom;verticalAlign=top;align=center;html=1;fontSize=12;fontStyle=1;aspect=fixed;shape=mxgraph.aws4.resourceIcon;resIcon=mxgraph.aws4.ec2;" parent="1" vertex="1">
          <mxGeometry x="707" y="220" width="78" height="78" as="geometry" />
        </mxCell>
        <mxCell id="ami" value="AMIs" style="sketch=0;points=[[0,0,0],[0.25,0,0],[0.5,0,0],[0.75,0,0],[1,0,0],[0,1,0],[0.25,1,0],[0.5,1,0],[0.75,1,0],[1,1,0],[0,0.25,0],[0,0.5,0],[0,0.75,0],[1,0.25,0],[1,0.5,0],[1,0.75,0]];outlineConnect=0;fontColor=#232F3E;gradientColor=#F78E04;gradientDirection=north;fillColor=#D05C17;strokeColor=#ffffff;dashed=0;verticalLabelPosition=bottom;verticalAlign=top;align=center;html=1;fontSize=12;fontStyle=1;aspect=fixed;shape=mxgraph.aws4.resourceIcon;resIcon=mxgraph.aws4.ami;" parent="1" vertex="1">
          <mxGeometry x="974" y="155" width="60" height="60" as="geometry" />
        </mxCell>
        <mxCell id="snapshot" value="EBS Snapshots" style="sketch=0;points=[[0,0,0],[0.25,0,0],[0.5,0,0],[0.75,0,0],[1,0,0],[0,1,0],[0.25,1,0],[0.5,1,0],[0.75,1,0],[1,1,0],[0,0.25,0],[0,0.5,0],[0,0.75,0],[1,0.25,0],[1,0.5,0],[1,0.75,0]];outlineConnect=0;fontColor=#232F3E;gradientColor=#4AB29A;gradientDirection=north;fillColor=#116D5B;strokeColor=#ffffff;dashed=0;verticalLabelPosition=bottom;verticalAlign=top;align=center;html=1;fontSize=12;fontStyle=1;aspect=fixed;shape=mxgraph.aws4.resourceIcon;resIcon=mxgraph.aws4.snapshot;" parent="1" vertex="1">
          <mxGeometry x="976" y="354" width="60" height="60" as="geometry" />
        </mxCell>
        <mxCell id="cloudwatch" value="CloudWatch Logs" style="sketch=0;points=[[0,0,0],[0.25,0,0],[0.5,0,0],[0.75,0,0],[1,0,0],[0,1,0],[0.25,1,0],[0.5,1,0],[0.75,1,0],[1,1,0],[0,0.25,0],[0,0.5,0],[0,0.75,0],[1,0.25,0],[1,0.5,0],[1,0.75,0]];outlineConnect=0;fontColor=#232F3E;gradientColor=#F34482;gradientDirection=north;fillColor=#BC1356;strokeColor=#ffffff;dashed=0;verticalLabelPosition=bottom;verticalAlign=top;align=center;html=1;fontSize=12;fontStyle=1;aspect=fixed;shape=mxgraph.aws4.resourceIcon;resIcon=mxgraph.aws4.cloudwatch_2;" parent="1" vertex="1">
          <mxGeometry x="712" y="454" width="78" height="78" as="geometry" />
        </mxCell>
        <mxCell id="s3" value="S3 Bucket&#xa;(Lambda Code)" style="sketch=0;points=[[0,0,0],[0.25,0,0],[0.5,0,0],[0.75,0,0],[1,0,0],[0,1,0],[0.25,1,0],[0.5,1,0],[0.75,1,0],[1,1,0],[0,0.25,0],[0,0.5,0],[0,0.75,0],[1,0.25,0],[1,0.5,0],[1,0.75,0]];outlineConnect=0;fontColor=#232F3E;gradientColor=#60A337;gradientDirection=north;fillColor=#277116;strokeColor=#ffffff;dashed=0;verticalLabelPosition=bottom;verticalAlign=top;align=center;html=1;fontSize=12;fontStyle=1;aspect=fixed;shape=mxgraph.aws4.resourceIcon;resIcon=mxgraph.aws4.s3;" parent="1" vertex="1">
          <mxGeometry x="531" y="534" width="78" height="78" as="geometry" />
        </mxCell>
        <mxCell id="cloudformation" value="CloudFormation&#xa;Stack" style="sketch=0;points=[[0,0,0],[0.25,0,0],[0.5,0,0],[0.75,0,0],[1,0,0],[0,1,0],[0.25,1,0],[0.5,1,0],[0.75,1,0],[1,1,0],[0,0.25,0],[0,0.5,0],[0,0.75,0],[1,0.25,0],[1,0.5,0],[1,0.75,0]];outlineConnect=0;fontColor=#232F3E;gradientColor=#F54749;gradientDirection=north;fillColor=#C7131F;strokeColor=#ffffff;dashed=0;verticalLabelPosition=bottom;verticalAlign=top;align=center;html=1;fontSize=12;fontStyle=1;aspect=fixed;shape=mxgraph.aws4.resourceIcon;resIcon=mxgraph.aws4.cloudformation;" parent="1" vertex="1">
          <mxGeometry x="347" y="524" width="78" height="78" as="geometry" />
        </mxCell>
        <mxCell id="arrow1" value="Daily Trigger&#xa;rate(1 day)" style="endArrow=classic;html=1;rounded=0;strokeColor=#FF6B35;strokeWidth=3;fontColor=#FF6B35;fontStyle=1;fontSize=10;flowAnimation=1;" parent="1" source="eventbridge" target="lambda" edge="1">
          <mxGeometry width="50" height="50" relative="1" as="geometry">
            <mxPoint x="260" y="259" as="sourcePoint" />
            <mxPoint x="380" y="259" as="targetPoint" />
            <mxPoint as="offset" />
          </mxGeometry>
        </mxCell>
        <mxCell id="arrow2" value="EC2 API Calls&#xa;DescribeImages&#xa;DescribeSnapshots&#xa;CreateTags" style="endArrow=classic;html=1;rounded=0;strokeColor=#1E88E5;strokeWidth=3;fontColor=#1E88E5;fontStyle=1;fontSize=10;flowAnimation=1;" parent="1" source="lambda" target="ec2" edge="1">
          <mxGeometry width="50" height="50" relative="1" as="geometry">
            <mxPoint x="500" y="259" as="sourcePoint" />
            <mxPoint x="660" y="259" as="targetPoint" />
            <mxPoint as="offset" />
          </mxGeometry>
        </mxCell>
        <mxCell id="arrow3" value="Tag AMIs" style="endArrow=classic;html=1;rounded=0;strokeColor=#4CAF50;strokeWidth=3;fontColor=#4CAF50;fontStyle=1;fontSize=10;flowAnimation=1;" parent="1" source="ec2" target="ami" edge="1">
          <mxGeometry width="50" height="50" relative="1" as="geometry">
            <mxPoint x="780" y="220" as="sourcePoint" />
            <mxPoint x="820" y="190" as="targetPoint" />
            <mxPoint as="offset" />
          </mxGeometry>
        </mxCell>
        <mxCell id="arrow4" value="Tag Snapshots" style="endArrow=classic;html=1;rounded=0;strokeColor=#4CAF50;strokeWidth=3;fontColor=#4CAF50;fontStyle=1;fontSize=10;flowAnimation=1;" parent="1" source="ec2" target="snapshot" edge="1">
          <mxGeometry width="50" height="50" relative="1" as="geometry">
            <mxPoint x="780" y="280" as="sourcePoint" />
            <mxPoint x="820" y="310" as="targetPoint" />
            <mxPoint as="offset" />
          </mxGeometry>
        </mxCell>
        <mxCell id="arrow5" value="Logs &amp; Metrics" style="endArrow=classic;html=1;rounded=0;strokeColor=#9C27B0;strokeWidth=3;fontColor=#9C27B0;fontStyle=1;fontSize=10;flowAnimation=1;" parent="1" source="lambda" target="cloudwatch" edge="1">
          <mxGeometry width="50" height="50" relative="1" as="geometry">
            <mxPoint x="439" y="320" as="sourcePoint" />
            <mxPoint x="439" y="480" as="targetPoint" />
            <mxPoint as="offset" />
          </mxGeometry>
        </mxCell>
        <mxCell id="arrow6" value="Assume Role" style="endArrow=classic;html=1;rounded=0;strokeColor=#FF9800;strokeWidth=2;fontColor=#FF9800;fontStyle=1;fontSize=10;dashed=1;flowAnimation=1;" parent="1" source="iam" target="lambda" edge="1">
          <mxGeometry width="50" height="50" relative="1" as="geometry">
            <mxPoint x="439" y="340" as="sourcePoint" />
            <mxPoint x="439" y="320" as="targetPoint" />
            <mxPoint as="offset" />
          </mxGeometry>
        </mxCell>
        <mxCell id="arrow7" value="Code Package" style="endArrow=classic;html=1;rounded=0;strokeColor=#607D8B;strokeWidth=2;fontColor=#607D8B;fontStyle=1;fontSize=10;dashed=1;flowAnimation=1;" parent="1" source="s3" target="lambda" edge="1">
          <mxGeometry x="-0.3786" y="-6" width="50" height="50" relative="1" as="geometry">
            <mxPoint x="260" y="480" as="sourcePoint" />
            <mxPoint x="380" y="320" as="targetPoint" />
            <mxPoint as="offset" />
          </mxGeometry>
        </mxCell>
        <mxCell id="arrow8" value="Deploys" style="endArrow=classic;html=1;rounded=0;strokeColor=#795548;strokeWidth=2;fontColor=#795548;fontStyle=1;fontSize=10;dashed=1;flowAnimation=1;" parent="1" source="cloudformation" target="lambda" edge="1">
          <mxGeometry width="50" height="50" relative="1" as="geometry">
            <mxPoint x="260" y="380" as="sourcePoint" />
            <mxPoint x="380" y="320" as="targetPoint" />
            <mxPoint as="offset" />
          </mxGeometry>
        </mxCell>
        <mxCell id="tags_box" value="Tags Applied:&#xa;• Retention: 90days&#xa;• DeleteOn: YYYY-MM-DD" style="rounded=1;whiteSpace=wrap;html=1;fillColor=#E8F5E8;strokeColor=#4CAF50;strokeWidth=2;fontColor=#2E7D32;fontStyle=1;fontSize=11;" parent="1" vertex="1">
          <mxGeometry x="957" y="251" width="156" height="68" as="geometry" />
        </mxCell>
        <mxCell id="schedule_box" value="Schedule:&#xa;• Daily Execution&#xa;• rate(1 day)&#xa;• EventBridge Rule" style="rounded=1;whiteSpace=wrap;html=1;fillColor=#FFF3E0;strokeColor=#FF9800;strokeWidth=2;fontColor=#E65100;fontStyle=1;fontSize=11;" parent="1" vertex="1">
          <mxGeometry x="384" y="225" width="150" height="80" as="geometry" />
        </mxCell>
        <mxCell id="permissions_box" value="IAM Permissions:&#xa;• ec2:DescribeImages&#xa;• ec2:DescribeSnapshots&#xa;• ec2:CreateTags&#xa;• logs:CreateLogGroup&#xa;• logs:CreateLogStream&#xa;• logs:PutLogEvents" style="rounded=1;whiteSpace=wrap;html=1;fillColor=#FFF3E0;strokeColor=#F57C00;strokeWidth=2;fontColor=#E65100;fontStyle=1;fontSize=10;" parent="1" vertex="1">
          <mxGeometry x="109" y="471" width="150" height="120" as="geometry" />
        </mxCell>
        <mxCell id="qgV_M5kJM_tYBPzym40f-1" value="" style="group" parent="1" vertex="1" connectable="0">
          <mxGeometry x="114" y="664" width="920" height="105" as="geometry" />
        </mxCell>
        <mxCell id="workflow_title" value="Workflow Steps:" style="text;html=1;strokeColor=none;fillColor=none;align=left;verticalAlign=middle;whiteSpace=wrap;rounded=0;fontSize=14;fontStyle=1;fontColor=#232F3E;" parent="qgV_M5kJM_tYBPzym40f-1" vertex="1">
          <mxGeometry x="4" width="120" height="20" as="geometry" />
        </mxCell>
        <mxCell id="workflow_steps" value="1. EventBridge triggers Lambda daily at scheduled time&#xa;2. Lambda assumes IAM role with EC2 permissions&#xa;3. Lambda calls EC2 APIs to describe owned AMIs and snapshots&#xa;4. Lambda calculates retention date based on RETENTION_DAYS&#xa;5. Lambda applies Retention and DeleteOn tags to each resource&#xa;6. Execution logs are sent to CloudWatch for monitoring&#xa;7. Function returns success/failure status with resource counts" style="text;html=1;strokeColor=none;fillColor=none;align=left;verticalAlign=top;whiteSpace=wrap;rounded=0;fontSize=11;fontColor=#232F3E;" parent="qgV_M5kJM_tYBPzym40f-1" vertex="1">
          <mxGeometry y="25" width="920" height="80" as="geometry" />
        </mxCell>
        <mxCell id="bCbRvop4gMxJOtVOGA8h-1" value="AWS Backup" style="outlineConnect=0;fontColor=#232F3E;gradientColor=#60A337;gradientDirection=north;fillColor=#277116;strokeColor=#ffffff;dashed=0;verticalLabelPosition=bottom;verticalAlign=top;align=center;html=1;fontSize=12;fontStyle=0;aspect=fixed;shape=mxgraph.aws4.resourceIcon;resIcon=mxgraph.aws4.backup;" vertex="1" parent="1">
          <mxGeometry x="174" y="127" width="78" height="78" as="geometry" />
        </mxCell>
        <mxCell id="bCbRvop4gMxJOtVOGA8h-2" value="Backup Job&#xa;Completion" style="edgeStyle=orthogonalEdgeStyle;html=1;endArrow=block;elbow=vertical;startArrow=none;endFill=1;strokeColor=#00CC66;strokeWidth=2;flowAnimation=1;" edge="1" parent="1" source="bCbRvop4gMxJOtVOGA8h-1">
          <mxGeometry relative="1" as="geometry">
            <mxPoint x="560" y="265" as="targetPoint" />
          </mxGeometry>
        </mxCell>
      </root>
    </mxGraphModel>
  </diagram>
</mxfile>
